<mxfile host="Electron" agent="Mozilla/5.0 (X11; Linux x86_64) AppleWebKit/537.36 (KHTML, like Gecko) draw.io/27.0.9 Chrome/134.0.6998.205 Electron/35.4.0 Safari/537.36" version="27.0.9">
  <diagram name="Page-1" id="jz7mS4_bu5eePmJRjr8f">
    <mxGraphModel dx="255" dy="327" grid="1" gridSize="10" guides="1" tooltips="1" connect="1" arrows="1" fold="1" page="1" pageScale="1" pageWidth="850" pageHeight="1100" math="0" shadow="0">
      <root>
        <mxCell id="0" />
        <mxCell id="1" parent="0" />
        <mxCell id="kS189BXzKa8bWwHNQYHQ-1" value="" style="shape=mxgraph.networks2.icon;aspect=fixed;fillColor=#EDEDED;strokeColor=#000000;gradientColor=#5B6163;network2IconShadow=1;network2bgFillColor=none;network2Icon=mxgraph.networks2.laptop;network2IconW=1;network2IconH=0.5734;" vertex="1" parent="1">
          <mxGeometry x="220" y="348.91" width="50" height="28.67" as="geometry" />
        </mxCell>
        <mxCell id="kS189BXzKa8bWwHNQYHQ-2" value="" style="shape=mxgraph.networks2.icon;aspect=fixed;fillColor=#EDEDED;strokeColor=#000000;gradientColor=#5B6163;network2IconShadow=1;network2bgFillColor=none;network2Icon=mxgraph.networks2.globe;network2IconW=1;network2IconH=1;" vertex="1" parent="1">
          <mxGeometry x="560" y="337.62" width="50" height="50" as="geometry" />
        </mxCell>
        <mxCell id="kS189BXzKa8bWwHNQYHQ-3" value="" style="fillColorStyles=neutralFill;neutralFill=#9DA6A8;shape=mxgraph.networks2.icon;aspect=fixed;fillColor=#EDEDED;strokeColor=#000000;gradientColor=#5B6163;network2IconShadow=1;network2bgFillColor=none;network2Icon=mxgraph.networks2.router;network2IconXOffset=0.0001;network2IconYOffset=-0.1142;network2IconW=1;network2IconH=0.5485;" vertex="1" parent="1">
          <mxGeometry x="410" y="348.91" width="50" height="27.425" as="geometry" />
        </mxCell>
        <mxCell id="kS189BXzKa8bWwHNQYHQ-4" value="" style="endArrow=classic;html=1;rounded=0;" edge="1" parent="1">
          <mxGeometry width="50" height="50" relative="1" as="geometry">
            <mxPoint x="280" y="360" as="sourcePoint" />
            <mxPoint x="400" y="360" as="targetPoint" />
          </mxGeometry>
        </mxCell>
        <mxCell id="kS189BXzKa8bWwHNQYHQ-5" value="" style="endArrow=classic;html=1;rounded=0;" edge="1" parent="1">
          <mxGeometry width="50" height="50" relative="1" as="geometry">
            <mxPoint x="470" y="360" as="sourcePoint" />
            <mxPoint x="550" y="360" as="targetPoint" />
          </mxGeometry>
        </mxCell>
        <mxCell id="kS189BXzKa8bWwHNQYHQ-6" value="&lt;div&gt;&lt;font style=&quot;font-size: 7px;&quot;&gt;MAC: de:ad:be:ef&lt;/font&gt;&lt;/div&gt;&lt;font style=&quot;font-size: 7px;&quot;&gt;IP: &lt;font style=&quot;color: light-dark(rgb(0, 255, 0), rgb(0, 255, 0));&quot;&gt;192.178.63.8&lt;/font&gt;&lt;/font&gt;" style="text;strokeColor=none;align=center;fillColor=none;html=1;verticalAlign=middle;whiteSpace=wrap;rounded=0;" vertex="1" parent="1">
          <mxGeometry x="215" y="376.34" width="60" height="30" as="geometry" />
        </mxCell>
        <mxCell id="kS189BXzKa8bWwHNQYHQ-7" value="&lt;div&gt;&lt;font style=&quot;font-size: 7px;&quot;&gt;MAC: fa:ce:fe:ed&lt;/font&gt;&lt;/div&gt;&lt;font style=&quot;font-size: 7px;&quot;&gt;IP: &lt;font style=&quot;color: light-dark(rgb(51, 51, 255), rgb(0, 0, 255));&quot;&gt;192.178.63.1&lt;/font&gt;&lt;/font&gt;" style="text;strokeColor=none;align=center;fillColor=none;html=1;verticalAlign=middle;whiteSpace=wrap;rounded=0;" vertex="1" parent="1">
          <mxGeometry x="405" y="376.96" width="60" height="30" as="geometry" />
        </mxCell>
        <mxCell id="kS189BXzKa8bWwHNQYHQ-8" value="" style="shape=mxgraph.networks2.icon;aspect=fixed;fillColor=#fad9d5;strokeColor=#ae4132;network2IconShadow=1;network2bgFillColor=none;network2Icon=mxgraph.networks2.laptop;network2IconW=1;network2IconH=0.5734;" vertex="1" parent="1">
          <mxGeometry x="410" y="521.33" width="50" height="28.67" as="geometry" />
        </mxCell>
        <mxCell id="kS189BXzKa8bWwHNQYHQ-9" value="" style="endArrow=classic;html=1;rounded=0;entryX=0.378;entryY=1.038;entryDx=0;entryDy=0;entryPerimeter=0;strokeColor=light-dark(#7F00FF,#EDEDED);" edge="1" parent="1">
          <mxGeometry width="50" height="50" relative="1" as="geometry">
            <mxPoint x="427.32" y="508.86" as="sourcePoint" />
            <mxPoint x="426.99999999999994" y="406.96000000000015" as="targetPoint" />
          </mxGeometry>
        </mxCell>
        <mxCell id="kS189BXzKa8bWwHNQYHQ-10" value="&lt;div&gt;&lt;font style=&quot;font-size: 7px;&quot;&gt;MAC: ba:ad:fo:od&lt;/font&gt;&lt;/div&gt;&lt;font style=&quot;font-size: 7px;&quot;&gt;IP: 192.178.63.4&lt;/font&gt;" style="text;strokeColor=none;align=center;fillColor=none;html=1;verticalAlign=middle;whiteSpace=wrap;rounded=0;" vertex="1" parent="1">
          <mxGeometry x="405" y="550" width="60" height="30" as="geometry" />
        </mxCell>
        <mxCell id="kS189BXzKa8bWwHNQYHQ-11" value="" style="endArrow=classic;html=1;rounded=0;strokeColor=light-dark(#FF00FF,#EDEDED);" edge="1" parent="1">
          <mxGeometry width="50" height="50" relative="1" as="geometry">
            <mxPoint x="390" y="510" as="sourcePoint" />
            <mxPoint x="280" y="390" as="targetPoint" />
          </mxGeometry>
        </mxCell>
        <mxCell id="kS189BXzKa8bWwHNQYHQ-12" value="" style="verticalLabelPosition=bottom;verticalAlign=top;html=1;shape=mxgraph.basic.x;strokeColor=none;fillColor=#FF0000;" vertex="1" parent="1">
          <mxGeometry x="320" y="345.21" width="30" height="31.75" as="geometry" />
        </mxCell>
        <mxCell id="kS189BXzKa8bWwHNQYHQ-13" value="" style="endArrow=classic;html=1;rounded=0;fontColor=#CC6600;strokeColor=#CC6600;" edge="1" parent="1">
          <mxGeometry width="50" height="50" relative="1" as="geometry">
            <mxPoint x="400" y="500" as="sourcePoint" />
            <mxPoint x="400" y="500" as="targetPoint" />
            <Array as="points">
              <mxPoint x="290" y="380" />
            </Array>
          </mxGeometry>
        </mxCell>
        <mxCell id="kS189BXzKa8bWwHNQYHQ-14" value="1. User request&lt;br&gt;http://website.com" style="edgeLabel;html=1;align=left;verticalAlign=middle;resizable=0;points=[];fontSize=7;fontColor=light-dark(#CC6600,#EDEDED);" vertex="1" connectable="0" parent="kS189BXzKa8bWwHNQYHQ-13">
          <mxGeometry x="-0.6348" relative="1" as="geometry">
            <mxPoint x="-40" y="-36" as="offset" />
          </mxGeometry>
        </mxCell>
        <mxCell id="kS189BXzKa8bWwHNQYHQ-15" value="" style="endArrow=classic;html=1;rounded=0;strokeColor=light-dark(#00CCCC,#EDEDED);" edge="1" parent="1">
          <mxGeometry width="50" height="50" relative="1" as="geometry">
            <mxPoint x="440" y="507.91999999999996" as="sourcePoint" />
            <mxPoint x="440" y="507.96" as="targetPoint" />
            <Array as="points">
              <mxPoint x="440" y="407.96" />
            </Array>
          </mxGeometry>
        </mxCell>
        <mxCell id="kS189BXzKa8bWwHNQYHQ-16" value="" style="endArrow=classic;html=1;rounded=0;" edge="1" parent="1">
          <mxGeometry width="50" height="50" relative="1" as="geometry">
            <mxPoint x="550" y="380" as="sourcePoint" />
            <mxPoint x="470" y="380" as="targetPoint" />
          </mxGeometry>
        </mxCell>
        <mxCell id="kS189BXzKa8bWwHNQYHQ-17" value="2. Attacker request&lt;br&gt;https://website.com" style="edgeLabel;html=1;align=left;verticalAlign=middle;resizable=0;points=[];fontSize=7;fontColor=light-dark(#7F00FF,#EDEDED);" vertex="1" connectable="0" parent="1">
          <mxGeometry x="370" y="450" as="geometry" />
        </mxCell>
        <mxCell id="kS189BXzKa8bWwHNQYHQ-18" value="3. Server response&lt;br&gt;Encrypted HTML Source code" style="edgeLabel;html=1;align=left;verticalAlign=middle;resizable=0;points=[];fontSize=7;fontColor=light-dark(#00CCCC,#EDEDED);" vertex="1" connectable="0" parent="1">
          <mxGeometry x="435" y="470" as="geometry" />
        </mxCell>
        <mxCell id="kS189BXzKa8bWwHNQYHQ-19" value="4. Attacker response&lt;br&gt;Unencrypted HTML Source code" style="edgeLabel;html=1;align=left;verticalAlign=middle;resizable=0;points=[];fontSize=7;fontColor=light-dark(#FF00FF,#EDEDED);" vertex="1" connectable="0" parent="1">
          <mxGeometry x="290" y="470" as="geometry" />
        </mxCell>
      </root>
    </mxGraphModel>
  </diagram>
</mxfile>
